<svg xmlns="http://www.w3.org/2000/svg" viewBox="0 0 96 37" fill="none">
  <!-- gov.il style emblem - State Emblem -->
  <g transform="translate(4, 2)">
    <path d="M14 0 L28 4 V22 C28 30 22 33 14 33 C6 33 0 30 0 22 V4 Z" fill="#0C3058"/>
    <g fill="#FFFFFF" transform="translate(14, 18)">
      <rect x="-0.5" y="8" width="1" height="2"/>
      <rect x="-4" y="10" width="8" height="1.2"/>
      <rect x="-0.3" y="2" width="0.6" height="7"/>
      <path d="M-0.3 5 C-2 5 -3 4 -3 2 V8" stroke="#FFFFFF" stroke-width="0.6" fill="none"/>
      <path d="M-0.3 5 C-3 5 -5 3 -5 1 V8" stroke="#FFFFFF" stroke-width="0.6" fill="none"/>
      <path d="M-0.3 5 C-4 5 -6 2.5 -6 -1 V8" stroke="#FFFFFF" stroke-width="0.6" fill="none"/>
      <path d="M0.3 5 C2 5 3 4 3 2 V8" stroke="#FFFFFF" stroke-width="0.6" fill="none"/>
      <path d="M0.3 5 C3 5 5 3 5 1 V8" stroke="#FFFFFF" stroke-width="0.6" fill="none"/>
      <path d="M0.3 5 C4 5 6 2.5 6 -1 V8" stroke="#FFFFFF" stroke-width="0.6" fill="none"/>
      <rect x="-6.3" y="-2.5" width="0.6" height="2"/>
      <rect x="-5.3" y="-2.5" width="0.6" height="2"/>
      <rect x="-3.3" y="-2.5" width="0.6" height="2"/>
      <rect x="-0.3" y="-2.5" width="0.6" height="2"/>
      <rect x="2.7" y="-2.5" width="0.6" height="2"/>
      <rect x="4.7" y="-2.5" width="0.6" height="2"/>
      <rect x="5.7" y="-2.5" width="0.6" height="2"/>
    </g>
  </g>
  <g font-family="Rubik, system-ui, sans-serif" fill="#0C3058">
    <text x="92" y="14" text-anchor="end" font-size="9" font-weight="700">ממשלת ישראל</text>
    <text x="92" y="26" text-anchor="end" font-size="8" font-weight="500">gov.il</text>
  </g>
</svg>
